<svg xmlns="http://www.w3.org/2000/svg" width="1200" height="400" viewBox="0 0 1200 400">
  <style>
    text { font-family: system-ui, -apple-system, Segoe UI, Roboto, Helvetica, Arial; font-size: 14px; fill: #3a2f25 }
  </style>
  <rect width="1200" height="400" fill="#f5f2eb"/>
  <g>
    <rect x="40" y="40" width="160" height="160" rx="8" fill="#5a5a32"/>
    <text x="40" y="220">Olive Earth #5A5A32</text>
  </g>
  <g>
    <rect x="240" y="40" width="160" height="160" rx="8" fill="#d4b08c"/>
    <text x="240" y="220">Clay Peach #D4B08C</text>
  </g>
  <g>
    <rect x="440" y="40" width="160" height="160" rx="8" fill="#3a2f25"/>
    <text x="440" y="220" fill="#f5f2eb">Soil Brown #3A2F25</text>
  </g>
  <g>
    <rect x="640" y="40" width="160" height="160" rx="8" fill="#f5f2eb" stroke="#3a2f25"/>
    <text x="640" y="220">Soft Cream #F5F2EB</text>
  </g>
  <g>
    <rect x="840" y="40" width="160" height="160" rx="8" fill="#1f3f36"/>
    <text x="840" y="220" fill="#f5f2eb">Deep Emerald #1F3F36</text>
  </g>
  <g>
    <rect x="1040" y="40" width="120" height="160" rx="8" fill="#111213"/>
    <text x="1040" y="220" fill="#f5f2eb">Charcoal #111213</text>
  </g>
  <g>
    <rect x="40" y="260" width="160" height="90" rx="8" fill="#b28b5a"/>
    <text x="40" y="370">Gold Accent #B28B5A</text>
  </g>
  <g>
    <rect x="240" y="260" width="160" height="90" rx="8" fill="#7b8d6a"/>
    <text x="240" y="370">Sage #7B8D6A</text>
  </g>
  <g>
    <rect x="440" y="260" width="160" height="90" rx="8" fill="#2b6b6f"/>
    <text x="440" y="370" fill="#f5f2eb">Muted Teal #2B6B6F</text>
  </g>
  <g>
    <rect x="640" y="260" width="160" height="90" rx="8" fill="#935f43"/>
    <text x="640" y="370">Terracotta #935F43</text>
  </g>
  <g>
    <rect x="840" y="260" width="160" height="90" rx="8" fill="#c0a47a"/>
    <text x="840" y="370">Antique Gold #C0A47A</text>
  </g>
  <g>
    <rect x="1040" y="260" width="120" height="90" rx="8" fill="#4a3a2a"/>
    <text x="1040" y="370" fill="#f5f2eb">Walnut #4A3A2A</text>
  </g>
</svg>
